<mxfile host="Electron" agent="Mozilla/5.0 (Windows NT 10.0; Win64; x64) AppleWebKit/537.36 (KHTML, like Gecko) draw.io/28.0.6 Chrome/138.0.7204.100 Electron/37.2.3 Safari/537.36" version="28.0.6">
  <diagram name="Page-1" id="0rfWOfyjAOf733A-oJOd">
    <mxGraphModel dx="1426" dy="841" grid="1" gridSize="10" guides="1" tooltips="1" connect="1" arrows="1" fold="1" page="1" pageScale="1" pageWidth="827" pageHeight="1169" math="0" shadow="0">
      <root>
        <mxCell id="0" />
        <mxCell id="1" parent="0" />
        <mxCell id="B6tf1ZhUQxjnIPDWgsCj-48" value="" style="rounded=0;whiteSpace=wrap;html=1;strokeColor=none;" parent="1" vertex="1">
          <mxGeometry x="90" y="30" width="920" height="640" as="geometry" />
        </mxCell>
        <mxCell id="B6tf1ZhUQxjnIPDWgsCj-47" value="Client 2" style="rounded=0;whiteSpace=wrap;html=1;fillColor=#f5f5f5;fontColor=#333333;strokeColor=none;verticalAlign=top;fontSize=18;" parent="1" vertex="1">
          <mxGeometry x="660" y="40" width="340" height="620" as="geometry" />
        </mxCell>
        <mxCell id="B6tf1ZhUQxjnIPDWgsCj-46" value="Host" style="rounded=0;whiteSpace=wrap;html=1;fillColor=#f5f5f5;fontColor=#333333;strokeColor=none;verticalAlign=top;fontSize=18;" parent="1" vertex="1">
          <mxGeometry x="460" y="40" width="180" height="620" as="geometry" />
        </mxCell>
        <mxCell id="B6tf1ZhUQxjnIPDWgsCj-45" value="Client 1" style="rounded=0;whiteSpace=wrap;html=1;fillColor=#f5f5f5;fontColor=#333333;strokeColor=none;verticalAlign=top;fontSize=18;" parent="1" vertex="1">
          <mxGeometry x="100" y="40" width="340" height="620" as="geometry" />
        </mxCell>
        <mxCell id="uIkM0Dpdz_mQOi9VMkWr-1" value="Session Manager" style="shape=umlLifeline;perimeter=lifelinePerimeter;whiteSpace=wrap;html=1;container=1;dropTarget=0;collapsible=0;recursiveResize=0;outlineConnect=0;portConstraint=eastwest;newEdgeStyle={&quot;curved&quot;:0,&quot;rounded&quot;:0};fontSize=18;size=50;fillColor=#fff2cc;strokeColor=#d6b656;" parent="1" vertex="1">
          <mxGeometry x="120" y="80" width="140" height="570" as="geometry" />
        </mxCell>
        <mxCell id="uIkM0Dpdz_mQOi9VMkWr-31" value="Session Manager" style="shape=umlLifeline;perimeter=lifelinePerimeter;whiteSpace=wrap;html=1;container=1;dropTarget=0;collapsible=0;recursiveResize=0;outlineConnect=0;portConstraint=eastwest;newEdgeStyle={&quot;curved&quot;:0,&quot;rounded&quot;:0};fontSize=18;size=50;fillColor=#fff2cc;strokeColor=#d6b656;" parent="1" vertex="1">
          <mxGeometry x="480" y="80" width="140" height="570" as="geometry" />
        </mxCell>
        <mxCell id="uIkM0Dpdz_mQOi9VMkWr-32" value="UI Manager" style="shape=umlLifeline;perimeter=lifelinePerimeter;whiteSpace=wrap;html=1;container=1;dropTarget=0;collapsible=0;recursiveResize=0;outlineConnect=0;portConstraint=eastwest;newEdgeStyle={&quot;curved&quot;:0,&quot;rounded&quot;:0};fontSize=18;size=50;fillColor=#fff2cc;strokeColor=#d6b656;" parent="1" vertex="1">
          <mxGeometry x="280" y="80" width="140" height="570" as="geometry" />
        </mxCell>
        <mxCell id="uIkM0Dpdz_mQOi9VMkWr-46" value="" style="endArrow=classic;html=1;rounded=0;snapToPoint=0;" parent="1" target="uIkM0Dpdz_mQOi9VMkWr-1" edge="1">
          <mxGeometry relative="1" as="geometry">
            <mxPoint x="189.5" y="160" as="sourcePoint" />
            <mxPoint x="476" y="160" as="targetPoint" />
            <Array as="points">
              <mxPoint x="250" y="160" />
              <mxPoint x="250" y="180" />
              <mxPoint x="250" y="200" />
            </Array>
          </mxGeometry>
        </mxCell>
        <mxCell id="uIkM0Dpdz_mQOi9VMkWr-47" value="Configure a&lt;div&gt;Debate&lt;/div&gt;" style="edgeLabel;resizable=0;html=1;;align=center;verticalAlign=middle;fontSize=18;labelBackgroundColor=none;" parent="uIkM0Dpdz_mQOi9VMkWr-46" connectable="0" vertex="1">
          <mxGeometry relative="1" as="geometry">
            <mxPoint x="50" as="offset" />
          </mxGeometry>
        </mxCell>
        <mxCell id="B6tf1ZhUQxjnIPDWgsCj-1" value="UI Manager" style="shape=umlLifeline;perimeter=lifelinePerimeter;whiteSpace=wrap;html=1;container=1;dropTarget=0;collapsible=0;recursiveResize=0;outlineConnect=0;portConstraint=eastwest;newEdgeStyle={&quot;curved&quot;:0,&quot;rounded&quot;:0};fontSize=18;size=50;fillColor=#fff2cc;strokeColor=#d6b656;" parent="1" vertex="1">
          <mxGeometry x="840" y="80" width="140" height="570" as="geometry" />
        </mxCell>
        <mxCell id="B6tf1ZhUQxjnIPDWgsCj-2" value="Session Manager" style="shape=umlLifeline;perimeter=lifelinePerimeter;whiteSpace=wrap;html=1;container=1;dropTarget=0;collapsible=0;recursiveResize=0;outlineConnect=0;portConstraint=eastwest;newEdgeStyle={&quot;curved&quot;:0,&quot;rounded&quot;:0};fontSize=18;size=50;fillColor=#fff2cc;strokeColor=#d6b656;" parent="1" vertex="1">
          <mxGeometry x="680" y="80" width="140" height="570" as="geometry" />
        </mxCell>
        <mxCell id="B6tf1ZhUQxjnIPDWgsCj-11" value="" style="endArrow=classic;html=1;rounded=0;snapToPoint=0;" parent="1" edge="1">
          <mxGeometry relative="1" as="geometry">
            <mxPoint x="550" y="280" as="sourcePoint" />
            <mxPoint x="749.5" y="280" as="targetPoint" />
          </mxGeometry>
        </mxCell>
        <mxCell id="B6tf1ZhUQxjnIPDWgsCj-12" value="Launch Debate" style="edgeLabel;resizable=0;html=1;;align=center;verticalAlign=middle;fontSize=18;labelBackgroundColor=none;" parent="B6tf1ZhUQxjnIPDWgsCj-11" connectable="0" vertex="1">
          <mxGeometry relative="1" as="geometry">
            <mxPoint x="30" y="-10" as="offset" />
          </mxGeometry>
        </mxCell>
        <mxCell id="B6tf1ZhUQxjnIPDWgsCj-13" value="" style="endArrow=classic;html=1;rounded=0;snapToPoint=0;" parent="1" edge="1">
          <mxGeometry relative="1" as="geometry">
            <mxPoint x="190" y="240" as="sourcePoint" />
            <mxPoint x="549.5" y="240" as="targetPoint" />
          </mxGeometry>
        </mxCell>
        <mxCell id="B6tf1ZhUQxjnIPDWgsCj-14" value="Launch Debate" style="edgeLabel;resizable=0;html=1;;align=center;verticalAlign=middle;fontSize=18;labelBackgroundColor=none;" parent="B6tf1ZhUQxjnIPDWgsCj-13" connectable="0" vertex="1">
          <mxGeometry relative="1" as="geometry">
            <mxPoint x="100" y="-10" as="offset" />
          </mxGeometry>
        </mxCell>
        <mxCell id="B6tf1ZhUQxjnIPDWgsCj-18" value="" style="endArrow=classic;html=1;rounded=0;snapToPoint=0;" parent="1" edge="1">
          <mxGeometry relative="1" as="geometry">
            <mxPoint x="750" y="320" as="sourcePoint" />
            <mxPoint x="910" y="320" as="targetPoint" />
          </mxGeometry>
        </mxCell>
        <mxCell id="B6tf1ZhUQxjnIPDWgsCj-19" value="Show Debate" style="edgeLabel;resizable=0;html=1;;align=center;verticalAlign=middle;fontSize=18;labelBackgroundColor=none;" parent="B6tf1ZhUQxjnIPDWgsCj-18" connectable="0" vertex="1">
          <mxGeometry relative="1" as="geometry">
            <mxPoint x="10" y="-10" as="offset" />
          </mxGeometry>
        </mxCell>
        <mxCell id="vas9QkJzwZENbsBJghM2-3" value="" style="endArrow=classic;html=1;rounded=0;snapToPoint=0;" edge="1" parent="1">
          <mxGeometry relative="1" as="geometry">
            <mxPoint x="190" y="280" as="sourcePoint" />
            <mxPoint x="350" y="280" as="targetPoint" />
          </mxGeometry>
        </mxCell>
        <mxCell id="vas9QkJzwZENbsBJghM2-4" value="Show Debate" style="edgeLabel;resizable=0;html=1;;align=center;verticalAlign=middle;fontSize=18;labelBackgroundColor=none;" connectable="0" vertex="1" parent="vas9QkJzwZENbsBJghM2-3">
          <mxGeometry relative="1" as="geometry">
            <mxPoint x="10" y="-10" as="offset" />
          </mxGeometry>
        </mxCell>
        <mxCell id="vas9QkJzwZENbsBJghM2-5" value="" style="endArrow=classic;html=1;rounded=0;snapToPoint=0;" edge="1" parent="1">
          <mxGeometry relative="1" as="geometry">
            <mxPoint x="910" y="370" as="sourcePoint" />
            <mxPoint x="750" y="370" as="targetPoint" />
          </mxGeometry>
        </mxCell>
        <mxCell id="vas9QkJzwZENbsBJghM2-6" value="Pick an option" style="edgeLabel;resizable=0;html=1;;align=center;verticalAlign=middle;fontSize=18;labelBackgroundColor=none;" connectable="0" vertex="1" parent="vas9QkJzwZENbsBJghM2-5">
          <mxGeometry relative="1" as="geometry">
            <mxPoint x="-10" y="-10" as="offset" />
          </mxGeometry>
        </mxCell>
        <mxCell id="vas9QkJzwZENbsBJghM2-7" value="" style="endArrow=classic;html=1;rounded=0;snapToPoint=0;" edge="1" parent="1" target="uIkM0Dpdz_mQOi9VMkWr-31">
          <mxGeometry relative="1" as="geometry">
            <mxPoint x="750" y="410" as="sourcePoint" />
            <mxPoint x="590" y="410" as="targetPoint" />
          </mxGeometry>
        </mxCell>
        <mxCell id="vas9QkJzwZENbsBJghM2-8" value="Pick an option" style="edgeLabel;resizable=0;html=1;;align=center;verticalAlign=middle;fontSize=18;labelBackgroundColor=none;" connectable="0" vertex="1" parent="vas9QkJzwZENbsBJghM2-7">
          <mxGeometry relative="1" as="geometry">
            <mxPoint x="-30" y="-10" as="offset" />
          </mxGeometry>
        </mxCell>
        <mxCell id="vas9QkJzwZENbsBJghM2-9" value="" style="endArrow=classic;html=1;rounded=0;snapToPoint=0;" edge="1" parent="1" target="uIkM0Dpdz_mQOi9VMkWr-1">
          <mxGeometry relative="1" as="geometry">
            <mxPoint x="550" y="450" as="sourcePoint" />
            <mxPoint x="350" y="450" as="targetPoint" />
          </mxGeometry>
        </mxCell>
        <mxCell id="vas9QkJzwZENbsBJghM2-10" value="Update all Clients (Option)" style="edgeLabel;resizable=0;html=1;;align=center;verticalAlign=middle;fontSize=18;labelBackgroundColor=none;" connectable="0" vertex="1" parent="vas9QkJzwZENbsBJghM2-9">
          <mxGeometry relative="1" as="geometry">
            <mxPoint x="-60" y="-10" as="offset" />
          </mxGeometry>
        </mxCell>
        <mxCell id="vas9QkJzwZENbsBJghM2-11" value="" style="endArrow=classic;html=1;rounded=0;snapToPoint=0;" edge="1" parent="1">
          <mxGeometry relative="1" as="geometry">
            <mxPoint x="190" y="500" as="sourcePoint" />
            <mxPoint x="549.5" y="500" as="targetPoint" />
          </mxGeometry>
        </mxCell>
        <mxCell id="vas9QkJzwZENbsBJghM2-12" value="Update Debate" style="edgeLabel;resizable=0;html=1;;align=center;verticalAlign=middle;fontSize=18;labelBackgroundColor=none;" connectable="0" vertex="1" parent="vas9QkJzwZENbsBJghM2-11">
          <mxGeometry relative="1" as="geometry">
            <mxPoint x="100" y="-10" as="offset" />
          </mxGeometry>
        </mxCell>
        <mxCell id="vas9QkJzwZENbsBJghM2-13" value="" style="endArrow=classic;html=1;rounded=0;snapToPoint=0;" edge="1" parent="1">
          <mxGeometry relative="1" as="geometry">
            <mxPoint x="550" y="540" as="sourcePoint" />
            <mxPoint x="749.5" y="540" as="targetPoint" />
          </mxGeometry>
        </mxCell>
        <mxCell id="vas9QkJzwZENbsBJghM2-14" value="Update all Clients (Debate)" style="edgeLabel;resizable=0;html=1;;align=center;verticalAlign=middle;fontSize=18;labelBackgroundColor=none;" connectable="0" vertex="1" parent="vas9QkJzwZENbsBJghM2-13">
          <mxGeometry relative="1" as="geometry">
            <mxPoint x="-20" y="-10" as="offset" />
          </mxGeometry>
        </mxCell>
        <mxCell id="vas9QkJzwZENbsBJghM2-15" value="" style="endArrow=classic;html=1;rounded=0;snapToPoint=0;" edge="1" parent="1">
          <mxGeometry relative="1" as="geometry">
            <mxPoint x="190" y="580" as="sourcePoint" />
            <mxPoint x="549.5" y="580" as="targetPoint" />
          </mxGeometry>
        </mxCell>
        <mxCell id="vas9QkJzwZENbsBJghM2-16" value="Close Debate" style="edgeLabel;resizable=0;html=1;;align=center;verticalAlign=middle;fontSize=18;labelBackgroundColor=none;" connectable="0" vertex="1" parent="vas9QkJzwZENbsBJghM2-15">
          <mxGeometry relative="1" as="geometry">
            <mxPoint x="110" y="-10" as="offset" />
          </mxGeometry>
        </mxCell>
        <mxCell id="vas9QkJzwZENbsBJghM2-17" value="" style="endArrow=classic;html=1;rounded=0;snapToPoint=0;" edge="1" parent="1">
          <mxGeometry relative="1" as="geometry">
            <mxPoint x="550" y="610" as="sourcePoint" />
            <mxPoint x="749.5" y="610" as="targetPoint" />
          </mxGeometry>
        </mxCell>
        <mxCell id="vas9QkJzwZENbsBJghM2-18" value="Close Debate" style="edgeLabel;resizable=0;html=1;;align=center;verticalAlign=middle;fontSize=18;labelBackgroundColor=none;" connectable="0" vertex="1" parent="vas9QkJzwZENbsBJghM2-17">
          <mxGeometry relative="1" as="geometry">
            <mxPoint x="30" y="-10" as="offset" />
          </mxGeometry>
        </mxCell>
      </root>
    </mxGraphModel>
  </diagram>
</mxfile>
